<svg width="16" height="17" viewBox="0 0 16 17" fill="none" xmlns="http://www.w3.org/2000/svg">
<g clip-path="url(#clip0_334_3361)">
<path d="M11.75 3.25V4.75H13.25V3.25H11.75ZM11 2.5H11.75H13.25H14V3.25V4.75V5.5H13.25H11.75H11V4.75V3.25V2.5ZM8.70312 2.53516L8.99141 2.77422L10.1164 3.71172L10.4609 4L10.1141 4.28828L8.98906 5.22578L8.70312 5.46484L8.22266 4.89062L8.51094 4.65156L8.83906 4.37734H2.75V8.125H13.625H14V8.5V13V13.375H13.625H11.75V13.75V14.5H11H9.5H8.75V13.75V12.25V11.5H9.5H11H11.75V12.25V12.625H13.25V8.875H2.375H2V8.5V4V3.625H2.375H8.83906L8.51094 3.35078L8.22266 3.10938L8.70312 2.53516ZM5 12.25V12.625H6.58906L6.25859 12.3508L5.97266 12.1094L6.45312 11.5352L6.74141 11.7742L7.86641 12.7117L8.21094 13L7.86641 13.2883L6.74141 14.2258L6.45312 14.4648L5.97266 13.8906L6.26094 13.6516L6.58906 13.375H5V13.75V14.5H4.25H2.75H2V13.75V12.25V11.5H2.75H4.25H5V12.25ZM4.25 12.25H2.75V13.75H4.25V12.25ZM9.5 12.25V13.75H11V12.25H9.5Z" fill="black"/>
</g>
<defs>
<clipPath id="clip0_334_3361">
<rect width="12" height="12" fill="white" transform="translate(2 2.5)"/>
</clipPath>
</defs>
</svg>
