<svg width="16" height="30" viewBox="0 0 16 30" fill="none" xmlns="http://www.w3.org/2000/svg">
<g clip-path="url(#clip0_334_3729)">
<path d="M10.0329 15.4079C9.49376 15.9471 8.7625 16.25 8 16.25C7.2375 16.25 6.50624 15.9471 5.96707 15.4079C5.4279 14.8688 5.125 14.1375 5.125 13.375C5.125 12.6125 5.4279 11.8812 5.96707 11.3421C6.50624 10.8029 7.2375 10.5 8 10.5C8.7625 10.5 9.49376 10.8029 10.0329 11.3421C10.5721 11.8812 10.875 12.6125 10.875 13.375C10.875 14.1375 10.5721 14.8688 10.0329 15.4079ZM4.27055 18H11.7295L13.368 24.9286H2.63203L4.27055 18Z" stroke="#243844"/>
</g>
<rect x="0.5" y="7.5" width="15" height="15" rx="7.5" stroke="#243844"/>
<defs>
<clipPath id="clip0_334_3729">
<rect y="7" width="16" height="16" rx="8" fill="white"/>
</clipPath>
</defs>
</svg>
