<svg width="32" height="32" viewBox="0 0 32 32" fill="none" xmlns="http://www.w3.org/2000/svg">
<path d="M8.4 10.3994H8V11.1994H8.4H8.8V20.7994H8.4H8V21.5994H8.4H8.8H9.6H22.4H23.2H23.6H24V20.7994H23.6H23.2V11.1994H23.6H24V10.3994H23.6H23.2H22.4H9.6H8.8H8.4ZM9.6 20.7994V11.1994H22.4V20.7994H9.6ZM12.8 13.1994V12.7994H12V13.1994V18.7994V19.1994H12.8V18.7994V13.1994ZM15.2 13.1994V12.7994H14.4V13.1994V18.7994V19.1994H15.2V18.7994V13.1994ZM17.6 13.1994V12.7994H16.8V13.1994V18.7994V19.1994H17.6V18.7994V13.1994ZM20 13.1994V12.7994H19.2V13.1994V18.7994V19.1994H20V18.7994V13.1994Z" fill="#243844"/>
</svg>
