<svg width="14" height="30" viewBox="0 0 14 30" fill="none" xmlns="http://www.w3.org/2000/svg">
<g clip-path="url(#clip0_334_3720)">
<path d="M6.5 7H7.5V8.025C10.0281 8.275 12 10.4062 12 13V16.0437L13.8531 17.8969L14 18.0437V18.25V19.5V20H13.5H0.5H0V19.5V18.25V18.0437L0.146875 17.8969L2 16.0437V13C2 10.4062 3.97187 8.275 6.5 8.025V7ZM7 9C4.79063 9 3 10.7906 3 13V16.25V16.4563L2.85313 16.6031L1 18.4563V19H13V18.4563L11.1469 16.6031L11 16.4563V16.25V13C11 10.7906 9.20938 9 7 9ZM5 21H6C6 21.5531 6.44688 22 7 22C7.55312 22 8 21.5531 8 21H9C9 22.1031 8.10312 23 7 23C5.89687 23 5 22.1031 5 21Z" fill="#243844"/>
</g>
<defs>
<clipPath id="clip0_334_3720">
<rect width="14" height="16" fill="white" transform="translate(0 7)"/>
</clipPath>
</defs>
</svg>
