<svg width="32" height="32" viewBox="0 0 32 32" fill="none" xmlns="http://www.w3.org/2000/svg">
<g clip-path="url(#clip0_334_8898)">
<path d="M13.7778 8.88867H13.3333V9.33312V10.6664H11.1111H10.6667V11.1109V15.5553H10.7528L8.74444 16.247L8.09722 16.4692L8.56389 16.9692L11.675 20.3026L12.325 19.697L9.68056 16.8637L15.5556 14.8442V19.5553V19.9998H16.4444V19.5553V14.8442L22.3194 16.8637L19.675 19.697L20.325 20.3026L23.4361 16.9692L23.9028 16.4692L23.2556 16.247L21.2472 15.5553H21.3333V11.1109V10.6664H20.8889H18.6667V9.33312V8.88867H18.2222H13.7778ZM17.7778 10.6664H14.2222V9.77756H17.7778V10.6664ZM13.3333 11.5553H13.7778H18.2222H18.6667H20.4444V15.2803L16.1444 13.8026L16 13.7526L15.8556 13.8026L11.5556 15.2803V11.5553H13.3333ZM11.7167 21.6331C11.3111 21.3553 10.9944 21.0359 10.6667 20.6831C10.3361 21.0387 10.025 21.3553 9.61667 21.6331C9.15833 21.947 8.58056 22.222 8 22.222V23.1109C8.84167 23.1109 9.59722 22.7192 10.1167 22.3665C10.3361 22.2164 10.5222 22.0664 10.6667 21.9414C10.8083 22.0664 10.9972 22.2164 11.2167 22.3665C11.7333 22.7192 12.4917 23.1109 13.3333 23.1109C14.175 23.1109 14.9306 22.7192 15.45 22.3665C15.6694 22.2164 15.8556 22.0664 16 21.9414C16.1417 22.0664 16.3306 22.2164 16.55 22.3665C17.0667 22.7192 17.825 23.1109 18.6667 23.1109C19.5083 23.1109 20.2639 22.7192 20.7833 22.3665C21.0028 22.2164 21.1889 22.0664 21.3333 21.9414C21.475 22.0664 21.6639 22.2164 21.8833 22.3665C22.4028 22.7192 23.1583 23.1109 24 23.1109V22.222C23.4194 22.222 22.8417 21.947 22.3833 21.6331C21.975 21.3553 21.6639 21.0359 21.3333 20.6831C21.0028 21.0387 20.6917 21.3553 20.2833 21.6331C19.8222 21.947 19.2472 22.222 18.6667 22.222C18.0861 22.222 17.5083 21.947 17.05 21.6331C16.6417 21.3553 16.3306 21.0359 16 20.6831C15.6694 21.0387 15.3583 21.3553 14.95 21.6331C14.4889 21.947 13.9139 22.222 13.3333 22.222C12.7528 22.222 12.175 21.947 11.7167 21.6331Z" fill="#243844"/>
</g>
<defs>
<clipPath id="clip0_334_8898">
<rect width="16" height="14.2222" fill="white" transform="translate(8 8.88867)"/>
</clipPath>
</defs>
</svg>
