<svg width="40" height="40" viewBox="0 0 40 40" fill="none" xmlns="http://www.w3.org/2000/svg">
<path d="M17.3333 8.88867H16V10.2776H13.1125H11.6667L12.2208 11.6664L12.775 13.0553H11.3333H10.6667V13.7498V22.0831V22.2741L10.7625 22.439L12.7625 25.9112L13.9042 25.1951L12.5125 22.7776H27.4875L26.0917 25.1994L27.2333 25.9156L29.2333 22.4434L29.3292 22.2784V22.0831V13.7498V13.0553H28.6667H27.2208L27.775 11.6664L28.3333 10.2776H26.8875H24V8.88867H22.6667H17.3333ZM13.3333 21.3887H12V14.4442H13.3333H26.6667H28V21.3887H26.6667V16.5276V15.8331H26H14H13.3333V16.5276V21.3887ZM14.6667 21.3887V17.222H25.3333V21.3887H14.6667ZM25.7792 13.0553H14.2208L13.6667 11.6664H16H17.3333V10.2776H22.6667V11.6664H24H26.3333L25.7792 13.0553ZM16 29.722C15.1292 29.722 14.2625 29.2923 13.575 28.8019C12.9667 28.3678 12.4917 27.8687 12 27.3175C11.5042 27.873 11.0375 28.3678 10.425 28.8019C9.7375 29.2923 8.87083 29.722 8 29.722V31.1109C9.2625 31.1109 10.3958 30.4989 11.175 29.9477C11.5042 29.7133 11.7833 29.4789 12 29.2836C12.2125 29.4789 12.4958 29.7133 12.825 29.9477C13.6 30.4989 14.7375 31.1109 16 31.1109C17.2625 31.1109 18.3958 30.4989 19.175 29.9477C19.5042 29.7133 19.7833 29.4789 20 29.2836C20.2125 29.4789 20.4958 29.7133 20.825 29.9477C21.6 30.4989 22.7375 31.1109 24 31.1109C25.2625 31.1109 26.3958 30.4989 27.175 29.9477C27.5042 29.7133 27.7833 29.4789 28 29.2836C28.2125 29.4789 28.4958 29.7133 28.825 29.9477C29.6042 30.4989 30.7375 31.1109 32 31.1109V29.722C31.1292 29.722 30.2625 29.2923 29.575 28.8019C28.9625 28.3678 28.4958 27.8687 28 27.3175C27.5042 27.873 27.0375 28.3678 26.425 28.8019C25.7333 29.2923 24.8708 29.722 24 29.722C23.1292 29.722 22.2625 29.2923 21.575 28.8019C20.9625 28.3678 20.4958 27.8687 20 27.3175C19.5042 27.873 19.0375 28.3678 18.425 28.8019C17.7333 29.2923 16.8708 29.722 16 29.722Z" fill="#10181E"/>
</svg>
