<svg width="16" height="32" viewBox="0 0 16 32" fill="none" xmlns="http://www.w3.org/2000/svg">
<g clip-path="url(#clip0_334_3712)">
<path d="M12 14.5C12 13.7777 11.8577 13.0625 11.5813 12.3952C11.3049 11.728 10.8998 11.1216 10.3891 10.6109C9.87837 10.1002 9.27205 9.69506 8.60476 9.41866C7.93747 9.14226 7.22227 9 6.5 9C5.77773 9 5.06253 9.14226 4.39524 9.41866C3.72795 9.69506 3.12163 10.1002 2.61091 10.6109C2.10019 11.1216 1.69506 11.728 1.41866 12.3952C1.14226 13.0625 1 13.7777 1 14.5C1 15.2223 1.14226 15.9375 1.41866 16.6048C1.69506 17.272 2.10019 17.8784 2.61091 18.3891C3.12163 18.8998 3.72795 19.3049 4.39524 19.5813C5.06253 19.8577 5.77773 20 6.5 20C7.22227 20 7.93747 19.8577 8.60476 19.5813C9.27205 19.3049 9.87837 18.8998 10.3891 18.3891C10.8998 17.8784 11.3049 17.272 11.5813 16.6048C11.8577 15.9375 12 15.2223 12 14.5ZM10.7281 19.4375C9.59375 20.4125 8.11563 21 6.5 21C2.90937 21 0 18.0906 0 14.5C0 10.9094 2.90937 8 6.5 8C10.0906 8 13 10.9094 13 14.5C13 16.1156 12.4125 17.5938 11.4375 18.7281L15.9531 23.2469L15.2469 23.9531L10.7281 19.4375Z" fill="#4B5763"/>
</g>
<defs>
<clipPath id="clip0_334_3712">
<rect width="16" height="16" fill="white" transform="translate(0 8)"/>
</clipPath>
</defs>
</svg>
