<svg width="32" height="32" viewBox="0 0 32 32" fill="none" xmlns="http://www.w3.org/2000/svg">
<g clip-path="url(#clip0_334_7543)">
<path d="M20 14.5C20 13.7777 19.8577 13.0625 19.5813 12.3952C19.3049 11.728 18.8998 11.1216 18.3891 10.6109C17.8784 10.1002 17.272 9.69506 16.6048 9.41866C15.9375 9.14226 15.2223 9 14.5 9C13.7777 9 13.0625 9.14226 12.3952 9.41866C11.728 9.69506 11.1216 10.1002 10.6109 10.6109C10.1002 11.1216 9.69506 11.728 9.41866 12.3952C9.14226 13.0625 9 13.7777 9 14.5C9 15.2223 9.14226 15.9375 9.41866 16.6048C9.69506 17.272 10.1002 17.8784 10.6109 18.3891C11.1216 18.8998 11.728 19.3049 12.3952 19.5813C13.0625 19.8577 13.7777 20 14.5 20C15.2223 20 15.9375 19.8577 16.6048 19.5813C17.272 19.3049 17.8784 18.8998 18.3891 18.3891C18.8998 17.8784 19.3049 17.272 19.5813 16.6048C19.8577 15.9375 20 15.2223 20 14.5ZM18.7281 19.4375C17.5938 20.4125 16.1156 21 14.5 21C10.9094 21 8 18.0906 8 14.5C8 10.9094 10.9094 8 14.5 8C18.0906 8 21 10.9094 21 14.5C21 16.1156 20.4125 17.5938 19.4375 18.7281L23.9531 23.2469L23.2469 23.9531L18.7281 19.4375Z" fill="#10181E"/>
</g>
<defs>
<clipPath id="clip0_334_7543">
<rect width="16" height="16" fill="white" transform="translate(8 8)"/>
</clipPath>
</defs>
</svg>
