<svg width="32" height="32" viewBox="0 0 32 32" fill="none" xmlns="http://www.w3.org/2000/svg">
<g clip-path="url(#clip0_334_8914)">
<path d="M22.6375 12.1781C22.3938 12.6687 22.0562 13.1781 21.7 13.65C21.4594 13.9719 21.2156 14.2688 21 14.5188C20.7844 14.2688 20.5406 13.9719 20.3 13.65C19.9438 13.1781 19.6094 12.6687 19.3625 12.1781C19.1094 11.6719 19 11.2719 19 11C19 9.89688 19.8969 9 21 9C22.1031 9 23 9.89688 23 11C23 11.2719 22.8906 11.6719 22.6375 12.1781ZM21.6781 15.2625C22.5625 14.2469 24 12.3844 24 11C24 9.34375 22.6562 8 21 8C19.3438 8 18 9.34375 18 11C18 12.2719 19.2125 13.9469 20.0969 15H16.5H16V15.5V19.5V20H16.5H23V23H13.1875C12.8938 23.3844 12.6063 23.725 12.3625 24H23.5H24V23.5V19.5V19H23.5H17V16H21C21 16 21.2844 15.7156 21.6781 15.2625ZM12.6375 20.1781C12.3937 20.6688 12.0563 21.1781 11.7 21.65C11.4594 21.9719 11.2156 22.2688 11 22.5188C10.7844 22.2688 10.5406 21.9719 10.3 21.65C9.94687 21.1781 9.60938 20.6688 9.3625 20.1781C9.10938 19.6719 9 19.2719 9 19C9 17.8969 9.89688 17 11 17C12.1031 17 13 17.8969 13 19C13 19.2719 12.8906 19.6719 12.6375 20.1781ZM11.8937 23.0125C12.7781 21.9594 14 20.275 14 19C14 17.3438 12.6562 16 11 16C9.34375 16 8 17.3438 8 19C8 20.3844 9.4375 22.2469 10.3219 23.2625C10.7156 23.7156 11 24 11 24C11 24 11.2031 23.7969 11.5 23.4625C11.5563 23.4 11.6156 23.3344 11.675 23.2625C11.7437 23.1844 11.8156 23.1 11.8906 23.0094L11.8937 23.0125ZM21.75 11C21.75 10.8011 21.671 10.6103 21.5303 10.4697C21.3897 10.329 21.1989 10.25 21 10.25C20.8011 10.25 20.6103 10.329 20.4697 10.4697C20.329 10.6103 20.25 10.8011 20.25 11C20.25 11.1989 20.329 11.3897 20.4697 11.5303C20.6103 11.671 20.8011 11.75 21 11.75C21.1989 11.75 21.3897 11.671 21.5303 11.5303C21.671 11.3897 21.75 11.1989 21.75 11ZM11 19.75C11.1989 19.75 11.3897 19.671 11.5303 19.5303C11.671 19.3897 11.75 19.1989 11.75 19C11.75 18.8011 11.671 18.6103 11.5303 18.4697C11.3897 18.329 11.1989 18.25 11 18.25C10.8011 18.25 10.6103 18.329 10.4697 18.4697C10.329 18.6103 10.25 18.8011 10.25 19C10.25 19.1989 10.329 19.3897 10.4697 19.5303C10.6103 19.671 10.8011 19.75 11 19.75Z" fill="#243844"/>
</g>
<defs>
<clipPath id="clip0_334_8914">
<rect width="16" height="16" fill="white" transform="translate(8 8)"/>
</clipPath>
</defs>
</svg>
