<svg width="16" height="17" viewBox="0 0 16 17" fill="none" xmlns="http://www.w3.org/2000/svg">
<path d="M6.22222 0.5H5.33333V1.5H3.40833H2.44444L2.81389 2.5L3.18333 3.5H2.22222H1.77778V4V10V10.1375L1.84167 10.2563L3.175 12.7563L3.93611 12.2406L3.00833 10.5H12.9917L12.0611 12.2437L12.8222 12.7594L14.1556 10.2594L14.2194 10.1406V10V4V3.5H13.7778H12.8139L13.1833 2.5L13.5556 1.5H12.5917H10.6667V0.5H9.77778H6.22222ZM3.55556 9.5H2.66667V4.5H3.55556H12.4444H13.3333V9.5H12.4444V6V5.5H12H4H3.55556V6V9.5ZM4.44444 9.5V6.5H11.5556V9.5H4.44444ZM11.8528 3.5H4.14722L3.77778 2.5H5.33333H6.22222V1.5H9.77778V2.5H10.6667H12.2222L11.8528 3.5ZM5.33333 15.5C4.75278 15.5 4.175 15.1906 3.71667 14.8375C3.31111 14.525 2.99444 14.1656 2.66667 13.7688C2.33611 14.1687 2.025 14.525 1.61667 14.8375C1.15833 15.1906 0.580556 15.5 0 15.5V16.5C0.841667 16.5 1.59722 16.0594 2.11667 15.6625C2.33611 15.4938 2.52222 15.325 2.66667 15.1844C2.80833 15.325 2.99722 15.4938 3.21667 15.6625C3.73333 16.0594 4.49167 16.5 5.33333 16.5C6.175 16.5 6.93056 16.0594 7.45 15.6625C7.66945 15.4938 7.85556 15.325 8 15.1844C8.14167 15.325 8.33055 15.4938 8.55 15.6625C9.06667 16.0594 9.825 16.5 10.6667 16.5C11.5083 16.5 12.2639 16.0594 12.7833 15.6625C13.0028 15.4938 13.1889 15.325 13.3333 15.1844C13.475 15.325 13.6639 15.4938 13.8833 15.6625C14.4028 16.0594 15.1583 16.5 16 16.5V15.5C15.4194 15.5 14.8417 15.1906 14.3833 14.8375C13.975 14.525 13.6639 14.1656 13.3333 13.7688C13.0028 14.1687 12.6917 14.525 12.2833 14.8375C11.8222 15.1906 11.2472 15.5 10.6667 15.5C10.0861 15.5 9.50833 15.1906 9.05 14.8375C8.64167 14.525 8.33056 14.1656 8 13.7688C7.66944 14.1687 7.35833 14.525 6.95 14.8375C6.48889 15.1906 5.91389 15.5 5.33333 15.5Z" fill="white"/>
</svg>
