<svg width="32" height="32" viewBox="0 0 32 32" fill="none" xmlns="http://www.w3.org/2000/svg">
<g clip-path="url(#clip0_334_8881)">
<path d="M23.1111 9.77756V19.5553H17.5639C17.5583 19.5553 17.5528 19.5553 17.5472 19.5553H14.4528C14.4472 19.5553 14.4417 19.5553 14.4361 19.5553H8.88889V9.77756H23.1111ZM8.88889 20.4442H13.9194L13.6222 22.222H12H11.5556V23.1109H12H14H18H20H20.4444V22.222H20H18.3778L18.0806 20.4442H23.1111H24V19.5553V9.77756V8.88867H23.1111H8.88889H8V9.77756V19.5553V20.4442H8.88889ZM14.525 22.222L14.8222 20.4442H17.1806L17.4778 22.222H14.525ZM18.2222 11.5553H17.7778V12.4442H18.2222H19.8167L16.4444 15.8164L14.5361 13.9081L14.2222 13.5942L13.9083 13.9081L10.7972 17.0192L10.4833 17.3331L11.1111 17.9609L11.425 17.647L14.2222 14.8498L16.1306 16.7581L16.4444 17.072L16.7583 16.7581L20.4444 13.072V14.6664V15.1109H21.3333V14.6664V11.9998V11.5553H20.8889H18.2222Z" fill="white"/>
</g>
<defs>
<clipPath id="clip0_334_8881">
<rect width="16" height="14.2222" fill="white" transform="translate(8 8.88867)"/>
</clipPath>
</defs>
</svg>
