<svg width="32" height="32" viewBox="0 0 32 32" fill="none" xmlns="http://www.w3.org/2000/svg">
<g clip-path="url(#clip0_334_8906)">
<path d="M17.2944 11.1109C17.2944 11.4645 17.154 11.8037 16.9039 12.0537C16.6539 12.3038 16.3147 12.4442 15.9611 12.4442C15.6075 12.4442 15.2684 12.3038 15.0183 12.0537C14.7683 11.8037 14.6278 11.4645 14.6278 11.1109C14.6278 10.7573 14.7683 10.4181 15.0183 10.1681C15.2684 9.91804 15.6075 9.77756 15.9611 9.77756C16.3147 9.77756 16.6539 9.91804 16.9039 10.1681C17.154 10.4181 17.2944 10.7573 17.2944 11.1109ZM15.9611 8.88867C14.7333 8.88867 13.7389 9.88312 13.7389 11.1109C13.7389 12.1859 14.5028 13.0831 15.5167 13.2887V13.3331V14.222H13.7389H13.2944V15.1109H13.7389H15.5167V22.222H10.6278V17.5164L11.425 18.3137L11.7389 18.6276L12.3667 17.9998L12.0528 17.6859L10.4972 16.1303L10.1833 15.8164L9.86944 16.1303L8.31389 17.6859L8 17.9998L8.62778 18.6276L8.94167 18.3137L9.73889 17.5164V22.6664V23.1109H10.1833H15.9611H21.7389H22.1833V22.6664V17.5164L22.9806 18.3137L23.2944 18.6276L23.9222 17.9998L23.6083 17.6859L22.0528 16.1303L21.7389 15.8164L21.425 16.1303L19.8694 17.6859L19.5556 17.9998L20.1833 18.6276L20.4972 18.3137L21.2944 17.5164V22.222H16.4056V15.1109H18.1833H18.6278V14.222H18.1833H16.4056V13.3331V13.2887C17.4194 13.0831 18.1833 12.1859 18.1833 11.1109C18.1833 9.88312 17.1889 8.88867 15.9611 8.88867Z" fill="#243844"/>
</g>
<defs>
<clipPath id="clip0_334_8906">
<rect width="16" height="14.2222" fill="white" transform="translate(8 8.88867)"/>
</clipPath>
</defs>
</svg>
