<svg width="24" height="24" viewBox="0 0 24 24" fill="none" xmlns="http://www.w3.org/2000/svg">
<g clip-path="url(#clip0_334_8869)">
<path opacity="0.4" d="M5.25 6.75C5.25 4.95979 5.96116 3.2429 7.22703 1.97703C8.4929 0.711159 10.2098 0 12 0C13.7902 0 15.5071 0.711159 16.773 1.97703C18.0388 3.2429 18.75 4.95979 18.75 6.75C18.75 8.54021 18.0388 10.2571 16.773 11.523C15.5071 12.7888 13.7902 13.5 12 13.5C10.2098 13.5 8.4929 12.7888 7.22703 11.523C5.96116 10.2571 5.25 8.54021 5.25 6.75Z" fill="#081A35"/>
<path d="M0 22.5609C0 18.3844 3.38438 15 7.56094 15H16.4391C20.6156 15 24 18.3844 24 22.5609C24 23.3578 23.3531 24 22.5609 24H1.43906C0.646875 24 0 23.3531 0 22.5609Z" fill="#081A35"/>
</g>
<defs>
<clipPath id="clip0_334_8869">
<rect width="24" height="24" fill="white"/>
</clipPath>
</defs>
</svg>
